<svg xmlns="http://www.w3.org/2000/svg" xmlns:xlink="http://www.w3.org/1999/xlink" width="500" zoomAndPan="magnify" viewBox="0 0 375 374.999991" height="500" preserveAspectRatio="xMidYMid meet" version="1.0"><defs><clipPath id="e4785a5810"><path d="M 73 37.5 L 301.703125 37.5 L 301.703125 337.5 L 73 337.5 Z M 73 37.5 " clip-rule="nonzero"/></clipPath></defs><rect x="-37.5" width="450" fill="#ffffff" y="-37.499999" height="449.999989" fill-opacity="1"/><rect x="-37.5" width="450" fill="#000000" y="-37.499999" height="449.999989" fill-opacity="1"/><g clip-path="url(#e4785a5810)"><path fill="#cdcdcd" d="M 183.273438 132.335938 L 165.019531 150.589844 L 269.519531 255.09375 L 186.957031 337.5 L 98.082031 248.625 L 112.230469 234.476562 L 186.957031 309.207031 L 240.878906 255.289062 L 224.140625 238.550781 L 191.933594 270.753906 L 191.71875 270.539062 L 191.523438 270.738281 L 73.09375 152.304688 L 87.242188 138.15625 L 191.742188 242.660156 L 210 224.402344 L 105.492188 119.90625 L 188.058594 37.5 L 276.933594 126.375 L 262.789062 140.523438 L 188.058594 65.785156 L 134.140625 119.707031 L 150.878906 136.445312 L 183.082031 104.238281 L 183.296875 104.453125 L 183.496094 104.257812 L 301.929688 222.691406 L 287.78125 236.835938 Z M 183.273438 132.335938 " fill-opacity="1" fill-rule="nonzero"/></g></svg>