<svg width="224.99" height="59.87" viewBox="0 0 224.99 59.87" fill="" xmlns="http://www.w3.org/2000/svg">
<path d="M22.33-9.1326L22.33-9.1326 22.33-22.8222Q22.33-24.4311 21.8-24.924000000000003 21.27-25.4169 19.54-25.4169L19.54-25.4169 12.41-25.4169Q3.66-25.4169 3.66-33.387L3.66-33.387 3.66-48.146100000000004Q3.66-56.0232 12.61-56.0232L12.61-56.0232 22.04-56.0232Q30.99-56.0232 30.99-48.146100000000004L30.99-48.146100000000004 30.99-39.915600000000005 22.23-39.915600000000005 22.23-46.8999Q22.23-48.5088 21.65-49.0017 21.08-49.4946 19.34-49.4946L19.34-49.4946 15.3-49.4946Q13.57-49.4946 12.99-49.0017 12.41-48.5088 12.41-46.8999L12.41-46.8999 12.41-34.4565Q12.41-32.8476 12.99-32.3547 13.57-31.8618 15.3-31.8618L15.3-31.8618 22.33-31.8618Q31.18-31.8618 31.18-23.9847L31.18-23.9847 31.18-7.877100000000001Q31.18 0 22.13 0L22.13 0 12.8 0Q3.85 0 3.85-7.877100000000001L3.85-7.877100000000001 3.85-16.1076 12.61-16.1076 12.61-9.1326Q12.61-7.5144 13.18-7.0215000000000005 13.76-6.5379000000000005 15.49-6.5379000000000005L15.49-6.5379000000000005 19.54-6.5379000000000005Q21.27-6.5379000000000005 21.8-7.0215000000000005 22.33-7.5144 22.33-9.1326ZM47.73-43.6728L47.73-43.6728 57.16-43.6728Q66.21-43.6728 66.21-35.712L66.21-35.712 66.21-19.3347 47.25-19.3347 47.25-8.9466Q47.25-7.430700000000001 47.83-6.8913 48.41-6.3519000000000005 50.14-6.3519000000000005L50.14-6.3519000000000005 54.56-6.3519000000000005Q56.3-6.3519000000000005 56.87-6.8913 57.45-7.430700000000001 57.45-9.039600000000002L57.45-9.039600000000002 57.45-12.6201 65.92-12.6201 65.92-7.877100000000001Q65.92 0 56.97 0L56.97 0 47.73 0Q38.78 0 38.78-7.877100000000001L38.78-7.877100000000001 38.78-35.712Q38.78-43.6728 47.73-43.6728ZM47.25-34.726200000000006L47.25-25.2402 57.64-25.2402 57.64-34.726200000000006Q57.64-36.2421 57.12-36.7815 56.59-37.3209 54.85-37.3209L54.85-37.3209 50.14-37.3209Q48.41-37.3209 47.83-36.7815 47.25-36.2421 47.25-34.726200000000006L47.25-34.726200000000006ZM91.13-40.2783L91.13-59.8734 99.79-59.8734 99.79 0 91.13 0 91.13-3.4875000000000003Q89.88 0 85.17 0L85.17 0 81.7 0Q73.04 0 73.04-7.877100000000001L73.04-7.877100000000001 73.04-35.795700000000004Q73.04-43.765800000000006 81.7-43.765800000000006L81.7-43.765800000000006 85.17-43.765800000000006Q89.88-43.765800000000006 91.13-40.2783L91.13-40.2783ZM84.59-6.5379000000000005L84.59-6.5379000000000005 87.96-6.5379000000000005Q89.69-6.5379000000000005 90.41-7.244700000000001 91.13-7.960800000000001 91.13-9.662700000000001L91.13-9.662700000000001 91.13-34.103100000000005Q91.13-35.795700000000004 90.41-36.5118 89.69-37.227900000000005 87.96-37.227900000000005L87.96-37.227900000000005 84.59-37.227900000000005Q82.86-37.227900000000005 82.28-36.6978 81.7-36.15840000000001 81.7-34.6332L81.7-34.6332 81.7-9.1326Q81.7-7.5144 82.28-7.0215000000000005 82.86-6.5379000000000005 84.59-6.5379000000000005ZM122.89-43.765800000000006L122.89-43.765800000000006 126.26-43.765800000000006Q135.02-43.765800000000006 135.02-35.795700000000004L135.02-35.795700000000004 135.02-7.877100000000001Q135.02 0 126.26 0L126.26 0 122.89 0Q118.18 0 116.92-3.4875000000000003L116.92-3.4875000000000003 116.92 0 108.26 0 108.26-59.8734 116.92-59.8734 116.92-40.2783Q118.18-43.765800000000006 122.89-43.765800000000006ZM126.36-9.1326L126.36-9.1326 126.36-34.6332Q126.36-36.15840000000001 125.78-36.6978 125.2-37.227900000000005 123.47-37.227900000000005L123.47-37.227900000000005 120.1-37.227900000000005Q118.37-37.227900000000005 117.65-36.5118 116.92-35.795700000000004 116.92-34.103100000000005L116.92-34.103100000000005 116.92-9.662700000000001Q116.92-7.960800000000001 117.65-7.244700000000001 118.37-6.5379000000000005 120.1-6.5379000000000005L120.1-6.5379000000000005 123.47-6.5379000000000005Q125.2-6.5379000000000005 125.78-7.0215000000000005 126.36-7.5144 126.36-9.1326ZM160.9-9.662700000000001L160.9-43.6728 169.56-43.6728 169.56 0 160.9 0 160.9-3.4875000000000003Q159.65 0 154.94 0L154.94 0 151.47 0Q142.81 0 142.81-7.877100000000001L142.81-7.877100000000001 142.81-43.6728 151.47-43.6728 151.47-9.1326Q151.47-7.5144 152.05-7.0215000000000005 152.63-6.5379000000000005 154.36-6.5379000000000005L154.36-6.5379000000000005 157.73-6.5379000000000005Q159.46-6.5379000000000005 160.18-7.244700000000001 160.9-7.960800000000001 160.9-9.662700000000001L160.9-9.662700000000001ZM184-6.4449000000000005L200.55-6.4449000000000005 200.55 0 175.15 0 175.15-6.4449000000000005 191.41-37.227900000000005 176.21-37.227900000000005 176.21-43.6728 200.36-43.6728 200.36-37.227900000000005 184-6.4449000000000005ZM212.1-6.4449000000000005L228.65-6.4449000000000005 228.65 0 203.25 0 203.25-6.4449000000000005 219.51-37.227900000000005 204.31-37.227900000000005 204.31-43.6728 228.46-43.6728 228.46-37.227900000000005 212.1-6.4449000000000005Z" transform="translate(-3.6600000858306885, 59.8734016418457)" stroke-width="0.7" stroke-linejoin="round"></path>
</svg>